HIERARCHY
ROOT root
{
	OFFSET	0	13.1	24.9
	CHANNELS 6  Xposition Yposition Zposition Xrotation Yrotation Zrotation
	JOINT spine_1
	{
		OFFSET	0	9.99999	0
		CHANNELS 3  Xrotation Yrotation Zrotation
		JOINT spine_2
		{
			OFFSET	0	112	-10
			CHANNELS 3  Xrotation Yrotation Zrotation
			JOINT spine_3
			{
				OFFSET	0	206.5	19.3
				CHANNELS 3  Xrotation Yrotation Zrotation
				JOINT spine_4
				{
					OFFSET	0	110.4	14.6
					CHANNELS 3  Xrotation Yrotation Zrotation
					JOINT neck_1
					{
						OFFSET	0	71.8	-50.3
						CHANNELS 3  Xrotation Yrotation Zrotation
						JOINT neck_2
						{
							OFFSET	0	86.2	-25.8
							CHANNELS 3  Xrotation Yrotation Zrotation
							JOINT head_ee
							{
								OFFSET	0	179.8	-8.7
								CHANNELS 3  Xrotation Yrotation Zrotation
								End Site
								{
									OFFSET	1	0	0
								}
							}
						}
					}
					JOINT left_clavicle
					{
						OFFSET	-43.2	22.4	-70.8
						CHANNELS 3  Xrotation Yrotation Zrotation
						JOINT left_shoulder
						{
							OFFSET	-93.9	-5.79999	48.7
							CHANNELS 3  Xrotation Yrotation Zrotation
							JOINT left_elbow
							{
								OFFSET	-291.4	-30.8	15.2
								CHANNELS 3  Xrotation Yrotation Zrotation
								JOINT left_lowarm_twist
								{
									OFFSET	-110.7	-3.89999	13.6
									CHANNELS 3  Xrotation Yrotation Zrotation
									JOINT left_hand
									{
										OFFSET	-110.7	-3.89999	13.6
										CHANNELS 3  Xrotation Yrotation Zrotation
										JOINT left_ee
										{
											OFFSET	-80.8	-5.10001	12.1
											CHANNELS 3  Xrotation Yrotation Zrotation
											End Site
											{
												OFFSET	1	0	0
											}
										}
									}
								}
							}
						}
					}
					JOINT right_clavicle
					{
						OFFSET	43.2	22.4	-70.8
						CHANNELS 3  Xrotation Yrotation Zrotation
						JOINT right_shoulder
						{
							OFFSET	93.9	-5.79999	48.7
							CHANNELS 3  Xrotation Yrotation Zrotation
							JOINT right_elbow
							{
								OFFSET	291.4	-30.8	15.2
								CHANNELS 3  Xrotation Yrotation Zrotation
								JOINT right_lowarm_twist
								{
									OFFSET	110.7	-3.89999	13.6
									CHANNELS 3  Xrotation Yrotation Zrotation
									JOINT right_hand
									{
										OFFSET	110.7	-3.89999	13.6
										CHANNELS 3  Xrotation Yrotation Zrotation
										JOINT right_ee
										{
											OFFSET	80.8	-5.10001	12.1
											CHANNELS 3  Xrotation Yrotation Zrotation
											End Site
											{
												OFFSET	1	0	0
											}
										}
									}
								}
							}
						}
					}
				}
			}
		}
	}
	JOINT left_hip
	{
		OFFSET	-82.8	-127.5	0.300001
		CHANNELS 3  Xrotation Yrotation Zrotation
		JOINT left_knee
		{
			OFFSET	-28.2	-396.7	2.2
			CHANNELS 3  Xrotation Yrotation Zrotation
			JOINT left_ankle
			{
				OFFSET	-11.7	-411.3	35.4
				CHANNELS 3  Xrotation Yrotation Zrotation
				JOINT left_toes
				{
					OFFSET	0	-60	-88.6
					CHANNELS 3  Xrotation Yrotation Zrotation
					JOINT left_foot_ee
					{
						OFFSET	-22.5	-16.5	-42.2
						CHANNELS 3  Xrotation Yrotation Zrotation
						End Site
						{
							OFFSET	1	0	0
						}
					}
				}
			}
		}
	}
	JOINT right_hip
	{
		OFFSET	82.8	-127.5	0.300001
		CHANNELS 3  Xrotation Yrotation Zrotation
		JOINT right_knee
		{
			OFFSET	28.2	-396.7	2.2
			CHANNELS 3  Xrotation Yrotation Zrotation
			JOINT right_ankle
			{
				OFFSET	11.7	-411.3	35.4
				CHANNELS 3  Xrotation Yrotation Zrotation
				JOINT right_toes
				{
					OFFSET	0	-60	-88.6
					CHANNELS 3  Xrotation Yrotation Zrotation
					JOINT right_foot_ee
					{
						OFFSET	22.5	-16.5	-42.2
						CHANNELS 3  Xrotation Yrotation Zrotation
						End Site
						{
							OFFSET	1	0	0
						}
					}
				}
			}
		}
	}
}
MOTION
Frames: 9
Frame Time: 0.02
2800.94 716.97 -1473.77 -3.51201276243 68.4789775725 -0.958581295082 0.376232 -0.0485057 1.54211 0.377543 -0.146524 1.5359 0.373969 -0.456568 1.47378 0.371005 -0.21811 1.52738 -22.8946 15.282 2.87303 -24.4175 28.1487 10.3208 -0.0 0.0 -0.0 -7.89976 17.2842 -10.3893 -40.1838 -37.0949 79.5273 149.989 -85.9707 147.91 -81.6283 -8.02803 5.25485 3.0346 -10.0807 16.4115 -0.0 0.0 -0.0 8.82288 -12.5106 -16.4533 -19.428 -10.8801 -56.7292 0.444409 12.4157 -0.04834 85.209 4.45157 8.87572 -7.53662 -26.9188 33.2877 0.0 0.0 0.0 -12.5275 1.2205 8.26539 -1.27603 0.0504339 0.189326 40.3838 12.9938 -4.93946 -18.1408 0.0 0.0 -0.0 0.0 -0.0 27.3587 8.9508 -1.30712 4.13103 0.192026 0.604606 8.5271 2.09885 1.23716 -32.8601 0.0 0.0 0.0 0.0 0.0 
2726.77594106 712.074 -1493.05626355 -6.85184100261 69.7792203624 1.36678412856 1.48769 -0.0235962 1.12222 1.48839 -0.0949534 1.11844 1.48655 -0.299984 1.08164 1.48494 -0.125406 1.11544 -23.8769 16.1596 2.84307 -25.7415 29.8773 11.1323 -0.0 0.0 -0.0 -7.97008 19.2242 -9.84155 -36.6309 -37.841 78.6837 25.3221 -85.2909 23.3792 -85.0058 -8.45265 5.18444 3.41108 -11.7533 18.2879 -0.0 0.0 -0.0 8.92822 -14.5804 -16.424 -18.115 -8.25534 -56.7699 0.516796 14.3598 -0.0651028 84.6099 4.37987 8.84799 -9.20208 -30.57 40.9425 0.0 0.0 0.0 -16.1488 3.3239 9.68774 -2.11476 0.0812787 0.314349 40.3501 14.7632 -4.96038 -19.2091 0.0 0.0 -0.0 0.0 -0.0 23.1462 11.3967 1.20218 5.7705 0.280262 0.840543 6.51722 19.3459 1.05566 -32.3124 0.0 0.0 0.0 0.0 0.0 
2701.12817955 713.911 -1500.8605703 -6.31781066473 70.1182903472 0.598702361695 1.69469 -0.0134656 0.943023 1.69518 -0.0734426 0.940255 1.69397 -0.24261 0.911383 1.69282 -0.0956357 0.938258 -24.331 16.3567 1.96782 -26.3823 30.6341 10.6311 -0.0 0.0 -0.0 -8.00046 18.4454 -10.1575 -33.1037 -36.3915 79.2464 17.1686 -83.1937 15.2655 -84.46 -8.38436 5.19753 3.41842 -11.946 18.2482 -0.0 0.0 -0.0 9.00193 -14.6983 -16.538 -17.6141 -6.96828 -56.5565 0.528097 14.6604 -0.0679343 84.914 4.41623 8.86216 -9.35244 -30.5721 42.1055 0.0 0.0 0.0 -16.936 2.68485 9.77563 -5.50096 0.187085 0.823182 40.0137 17.3938 -4.97466 -19.2215 0.0 0.0 -0.0 0.0 -0.0 22.2279 11.7422 1.38867 3.76543 0.173274 0.551661 6.48115 24.2862 1.10335 -32.1673 0.0 0.0 0.0 0.0 0.0 
2658.68768967 716.292 -1502.3314829 -7.7692800926 72.0241457562 1.37682285473 2.28355 0.260734 0.70446 2.2838 0.21538 0.719623 2.28651 0.0891604 0.745851 2.28579 0.205832 0.722411 -27.8149 17.4352 1.65156 -30.7474 32.7461 12.3108 -0.0 0.0 -0.0 -8.08816 19.3331 -9.98975 -24.5066 -33.8316 82.3407 6.95068 -73.7678 5.21846 -81.6335 -8.02868 5.25477 3.92863 -13.6455 21.0505 -0.0 0.0 -0.0 9.92565 -12.6067 -18.4158 -15.7234 -4.35969 -57.6515 0.535471 14.8561 -0.0698128 85.2628 4.45802 8.87818 -10.2577 -31.3919 48.3826 0.0 0.0 0.0 -12.7297 2.79186 9.98919 -16.5876 0.320659 2.51647 40.2683 18.7192 -5.02453 -17.8836 0.0 0.0 -0.0 0.0 -0.0 20.252 10.6553 2.72938 1.68411 0.0730049 0.248106 9.27232 27.7771 1.62668 -34.5023 0.0 0.0 0.0 0.0 0.0 
2659.1736932 716.292 -1504.65352888 -7.39845786002 71.0954920419 0.985942987804 2.28355 0.260734 0.70446 2.2838 0.21538 0.719623 2.28651 0.0891604 0.745851 2.28579 0.205832 0.722411 -27.8149 17.4352 1.65156 -30.7474 32.7461 12.3108 -0.0 0.0 -0.0 -8.08816 19.3331 -9.98975 -24.5066 -33.8316 82.3407 6.95068 -73.7678 5.21846 -81.6335 -8.02868 5.25477 3.92863 -13.6455 21.0505 -0.0 0.0 -0.0 9.92565 -12.6067 -18.4158 -15.7234 -4.35969 -57.6515 0.535471 14.8561 -0.0698128 85.2628 4.45802 8.87818 -10.2577 -31.3919 48.3826 0.0 0.0 0.0 -12.7297 2.79186 9.98919 -16.5876 0.320659 2.51647 40.2683 18.7192 -5.02453 -17.8836 0.0 0.0 -0.0 0.0 -0.0 20.252 10.6553 2.72938 1.68411 0.0730049 0.248106 9.27232 27.7771 1.62668 -34.5023 0.0 0.0 0.0 0.0 0.0 
2648.02267109 718.972 -1508.80439196 -9.59392145351 71.469448446 2.88275692883 2.48443 0.267831 0.629513 2.48462 0.227232 0.645279 2.48718 0.115912 0.674227 2.48661 0.220937 0.647462 -28.6958 18.0417 1.98862 -31.9828 33.7309 13.4087 -0.0 0.0 -0.0 -8.08766 19.6148 -9.89071 -23.6332 -34.3999 82.0208 5.42845 -69.5737 3.77249 -79.3533 -7.73973 5.28798 4.18483 -18.0558 20.5803 -0.0 0.0 -0.0 10.1269 -11.2994 -18.9434 -17.3382 1.14827 -58.5273 0.637699 17.5313 -0.0983306 85.3574 4.46937 8.88248 -10.2616 -31.4079 48.3892 0.0 0.0 0.0 -9.9465 2.95211 9.16012 -21.1666 0.279949 3.21767 40.5945 20.703 -5.10025 -16.3304 0.0 0.0 -0.0 0.0 -0.0 19.7757 9.90114 3.18576 1.91673 0.0836621 0.282207 11.7824 24.5124 1.96772 -34.2348 0.0 0.0 0.0 0.0 0.0 
2647.98638599 718.972 -1508.64563707 -9.62359008648 71.5280899958 2.91404249479 2.48443 0.267831 0.629513 2.48462 0.227232 0.645279 2.48718 0.115912 0.674227 2.48661 0.220937 0.647462 -28.6958 18.0417 1.98862 -31.9828 33.7309 13.4087 -0.0 0.0 -0.0 -8.08766 19.6148 -9.89071 -23.6332 -34.3999 82.0208 5.42845 -69.5737 3.77249 -79.3533 -7.73973 5.28798 4.18483 -18.0558 20.5803 -0.0 0.0 -0.0 10.1269 -11.2994 -18.9434 -17.3382 1.14827 -58.5273 0.637699 17.5313 -0.0983306 85.3574 4.46937 8.88248 -10.2616 -31.4079 48.3892 0.0 0.0 0.0 -9.9465 2.95211 9.16012 -21.1666 0.279949 3.21767 40.5945 20.703 -5.10025 -16.3304 0.0 0.0 -0.0 0.0 -0.0 19.7757 9.90114 3.18576 1.91673 0.0836621 0.282207 11.7824 24.5124 1.96772 -34.2348 0.0 0.0 0.0 0.0 0.0 
2647.85301189 718.972 -1508.05545132 -9.73552610695 71.7459285387 3.03198392169 2.48443 0.267831 0.629513 2.48462 0.227232 0.645279 2.48718 0.115912 0.674227 2.48661 0.220937 0.647462 -28.6958 18.0417 1.98862 -31.9828 33.7309 13.4087 -0.0 0.0 -0.0 -8.08766 19.6148 -9.89071 -23.6332 -34.3999 82.0208 5.42845 -69.5737 3.77249 -79.3533 -7.73973 5.28798 4.18483 -18.0558 20.5803 -0.0 0.0 -0.0 10.1269 -11.2994 -18.9434 -17.3382 1.14827 -58.5273 0.637699 17.5313 -0.0983306 85.3574 4.46937 8.88248 -10.2616 -31.4079 48.3892 0.0 0.0 0.0 -9.9465 2.95211 9.16012 -21.1666 0.279949 3.21767 40.5945 20.703 -5.10025 -16.3304 0.0 0.0 -0.0 0.0 -0.0 19.7757 9.90114 3.18576 1.91673 0.0836621 0.282207 11.7824 24.5124 1.96772 -34.2348 0.0 0.0 0.0 0.0 0.0 
2635.35880332 718.692 -1508.76299654 -11.702691701 73.6661395334 5.12482532222 2.44765 0.255806 0.506553 2.44776 0.223055 0.521803 2.4498 0.13212 0.551884 2.44944 0.21762 0.524093 -28.7656 18.8008 2.5594 -32.3477 34.9604 14.5643 -0.0 0.0 -0.0 -7.53072 18.5534 -9.37297 -20.6653 -34.3599 83.8807 4.04657 -63.4686 2.5032 -78.4494 -7.62481 5.29794 4.35337 -17.2775 22.1966 -0.0 0.0 -0.0 10.1198 -8.70122 -19.2241 -16.9572 3.1878 -59.7773 0.663248 18.1882 -0.106166 85.26 4.45768 8.87805 -10.5646 -31.6588 50.7466 0.0 0.0 0.0 -10.4493 1.12404 8.09702 -19.9101 0.296698 3.02561 40.9601 17.5078 -5.06199 -18.5246 0.0 0.0 -0.0 0.0 -0.0 19.2704 9.4295 3.8447 1.12532 0.0479719 0.166018 14.8906 28.9939 2.58491 -39.313 0.0 0.0 0.0 0.0 0.0 
